{"title":"[IKnime] Naruto Shippuuden - 266 [Lite].mp4","uid":7359682,"size":86038738,"categoryP":"video","categoryS":"tv_shows","magnet":"?xt=urn:btih:0dac03822a055e4f6da4d5597c2b74b78d6737e7&amp;dn=%5BIKnime%5D+Naruto+Shippuuden+-+266+%5BLite%5D.mp4&amp;tr=udp%3A%2F%2Ftracker.openbittorrent.com%3A80&amp;tr=udp%3A%2F%2Fopen.demonii.com%3A1337&amp;tr=udp%3A%2F%2Ftracker.coppersurfer.tk%3A6969&amp;tr=udp%3A%2F%2Fexodus.desync.com%3A6969","seeders":0,"leechers":0,"uploader":null,"files":-1,"time":1339913938,"description":"General\n\nComplete name                            : [IKnime] Naruto Shippuuden - 266 [Lite].mp4\nFormat                                   : MPEG-4\nFormat profile                           : Base Media\nCodec ID                                 : isom\nFile size                                : 82.1 MiB\nDuration                                 : 23mn 25s\nOverall bit rate mode                    : Variable\nOverall bit rate                         : 490 Kbps\n\nVideo\n\nID                                       : 1\nFormat                                   : AVC\nFormat/Info                              : Advanced Video Codec\nFormat profile                           : &lt;a class=&quot;__cf_email__&quot; href=&quot;/cdn-cgi/l/email-protection&quot; data-cfemail=&quot;a2eacbc5cae2ee968c92&quot;&gt;[email&amp;#160;protected]&lt;/a&gt;&lt;script cf-hash='f9e31' type=&quot;text/javascript&quot;&gt;\n/* &lt;![CDATA[ */!function(){try{var t=&quot;currentScript&quot;in document?document.currentScript:function(){for(var t=document.getElementsByTagName(&quot;script&quot;),e=t.length;e--;)if(t[e].getAttribute(&quot;cf-hash&quot;))return t[e]}();if(t&amp;&amp;t.previousSibling){var e,r,n,i,c=t.previousSibling,a=c.getAttribute(&quot;data-cfemail&quot;);if(a){for(e=&quot;&quot;,r=parseInt(a.substr(0,2),16),n=2;a.length-n;n+=2)i=parseInt(a.substr(n,2),16)^r,e+=String.fromCharCode(i);e=document.createTextNode(e),c.parentNode.replaceChild(e,c)}}}catch(u){}}();/* ]]&gt; */&lt;/script&gt;\nFormat settings, CABAC                   : Yes\nFormat settings, ReFrames                : 6 frames\nCodec ID                                 : avc1\nCodec ID/Info                            : Advanced Video Coding\nDuration                                 : 23mn 24s\nBit rate                                 : 461 Kbps\nMaximum bit rate                         : 3 861 Kbps\nWidth                                    : 1 280 pixels\nHeight                                   : 720 pixels\nDisplay aspect ratio                     : 16:9\nFrame rate mode                          : Constant\nFrame rate                               : 23.976 fps\nColor space                              : YUV\nChroma subsampling                       : 4:2:0\nBit depth                                : 8 bits\nScan type                                : Progressive\nBits/(Pixel*Frame)                       : 0.021\nStream size                              : 77.2 MiB (94%)\n\n\n\nAudio\n\n\nFormat                                   : AAC\nFormat/Info                              : Advanced Audio Codec\nFormat profile                           : HE-AACv2 / HE-AAC / LC\nCodec ID                                 : 40\nDuration                                 : 23mn 25s\nBit rate mode                            : Variable\nBit rate                                 : 26.0 Kbps\nMaximum bit rate                         : 30.1 Kbps\nChannel(s)                               : 2 channels / 1 channel / 1 channel\nChannel positions                        : Front: L R / Front: C / Front: C\nSampling rate                            : 48.0 KHz / 48.0 KHz / 24.0 KHz\nCompression mode                         : Lossy\nDelay relative to video                  : -3s 337ms\nStream size                              : 4.36 MiB (5%)\nLanguage                                 : Japanese\n","torrent":{"xt":"urn:btih:0dac03822a055e4f6da4d5597c2b74b78d6737e7","amp;dn":"%5BIKnime%5D+Naruto+Shippuuden+-+266+%5BLite%5D.mp4","amp;tr":["udp%3A%2F%2Ftracker.openbittorrent.com%3A80","udp%3A%2F%2Fopen.demonii.com%3A1337","udp%3A%2F%2Ftracker.coppersurfer.tk%3A6969","udp%3A%2F%2Fexodus.desync.com%3A6969"],"infoHash":"0dac03822a055e4f6da4d5597c2b74b78d6737e7","infoHashBuffer":{"type":"Buffer","data":[13,172,3,130,42,5,94,79,109,164,213,89,124,43,116,183,141,103,55,231]},"announce":[],"urlList":[]}}